<?xml version="1.0" standalone="no"?>
<!DOCTYPE svg PUBLIC "-//W3C//DTD SVG 20010904//EN"
 "http://www.w3.org/TR/2001/REC-SVG-20010904/DTD/svg10.dtd">
<svg version="1.0" xmlns="http://www.w3.org/2000/svg"
 width="350.000000pt" height="350.000000pt" viewBox="0 0 350.000000 350.000000"
 preserveAspectRatio="xMidYMid meet">
<metadata>
Created by potrace 1.11, written by Peter Selinger 2001-2013
</metadata>
<g transform="translate(0.000000,350.000000) scale(0.100000,-0.100000)"
fill="#000000" stroke="none">
<path d="M290 2846 l0 -363 139 -8 c77 -4 145 -4 150 0 7 4 11 82 11 221 l0
214 214 0 c139 0 217 4 221 11 4 5 4 73 0 150 l-8 139 -363 0 -364 0 0 -364z"/>
<path d="M2475 3071 c-4 -77 -4 -145 0 -150 4 -7 82 -11 221 -11 l214 0 0
-214 c0 -139 4 -217 11 -221 5 -4 73 -4 150 0 l139 8 0 363 0 364 -364 0 -363
0 -8 -139z"/>
<path d="M440 1605 l0 -295 293 2 292 3 3 143 3 142 -151 0 -150 0 0 150 0
150 -145 0 -145 0 0 -295z"/>
<path d="M2770 1750 l0 -150 -150 0 -151 0 3 -142 3 -143 293 -3 292 -2 0 295
0 295 -145 0 -145 0 0 -150z"/>
<path d="M1457 1603 c-4 -3 -7 -69 -7 -145 l0 -138 -145 0 -145 0 0 -145 0
-144 -142 -3 -143 -3 -3 -292 -2 -293 292 -2 293 -3 3 -149 3 -149 217 6 c119
4 250 7 289 7 l72 0 3 142 3 143 293 3 292 2 -2 293 -3 292 -142 3 -143 3 0
144 0 145 -145 0 -144 0 -3 143 -3 142 -291 3 c-160 1 -293 -1 -297 -5z"/>
</g>
</svg>
